<?xml version="1.0" encoding="UTF-8"?>
<!-- Generated by Pixelmator Pro 3.5.9 -->
<svg width="1365" height="500" viewBox="0 0 1365 500" xmlns="http://www.w3.org/2000/svg">
    <g id="fdfcfdff"/>
    <g id="0d0c0dff">
        <path id="path1" fill="#0d0c0d" stroke="none" d="M 194.653336 128.986633 C 209.266663 128.960022 223.880005 129.026672 238.506668 129.039978 C 258.76001 163.626648 279.880005 197.706665 300.573334 232.039978 C 322.933319 198.426697 343.373322 163.58667 364.52002 129.213318 C 378.160004 129.039978 391.800018 129 405.453339 129 C 377.626678 172.82666 350.213348 216.919983 322.266663 260.666687 C 317.360016 268.200012 319.093353 277.813293 318.559998 286.320007 C 319.093353 309.440002 320.466675 332.533386 320.040009 355.679993 C 307.146667 355.639954 294.23999 355.613342 281.346649 355.679993 C 281 326.773376 281.920013 297.840027 281.186676 268.946716 C 280.973328 264.506653 277.746674 261.013367 275.786652 257.253357 C 248.440002 214.693298 222.039993 171.52002 194.653336 128.986633 Z"/>
        <path id="path2" fill="#0d0c0d" stroke="none" d="M 617.34668 129.013367 C 650.666687 129.320007 684 128.293335 717.306641 129.359985 C 742.080017 129.973328 768.58667 143.840027 776.600037 168.466675 C 783.34668 189.853333 785.65332 213.720032 778.266663 235.23999 C 772.466614 251.959961 758.360046 265 741.866699 270.959961 C 713.959961 281.053284 683.65332 275.76001 654.65332 277 C 654.720032 303.226624 654.613342 329.466614 654.666687 355.693359 C 641.880005 355.639954 629.119995 355.626648 616.359985 355.666687 C 618.600037 280.146667 616.693298 204.559998 617.34668 129.013367 M 654.693298 163.706665 C 654.626648 189.893372 654.613342 216.093323 654.693298 242.293335 C 675.573303 241.960022 696.626648 243.799988 717.399963 241.013367 C 732.893311 239.373352 743.746643 224.466675 744.82666 209.626648 C 746.266663 192.746643 740.76001 171.906677 722.719971 166.23999 C 700.493347 161.053345 677.293335 164.533325 654.693298 163.706665 Z"/>
        <path id="path3" fill="#0d0c0d" stroke="none" d="M 810.679993 128.986633 C 823.546631 129.013367 836.440002 129.053345 849.320007 128.986633 C 849.386658 192.986633 849.280029 256.986633 849.34668 320.986633 C 885.733337 321.053284 922.120056 320.93335 958.52002 321.026672 C 958.693359 332.546631 958.840027 344.106689 959.626648 355.626648 C 910.06665 355.679993 860.493347 355.746643 810.946716 355.58667 C 810.386658 280.053284 810.76001 204.52002 810.679993 128.986633 Z"/>
        <path id="path4" fill="#0d0c0d" stroke="none" d="M 1063.93335 128.93335 C 1077.559937 129 1091.186646 129.06665 1104.813354 129.146667 C 1114.719971 156.799988 1126.013306 183.960022 1136.266724 211.493347 C 1154.400024 259.573303 1173.200073 307.41333 1191.17334 355.573303 C 1177.82666 355.613342 1164.493286 355.613342 1151.17334 355.533386 C 1145.06665 337.253357 1137.76001 319.399963 1131.453369 301.186707 C 1099.733276 300.853333 1068.013306 300.906677 1036.293335 301.120056 C 1029.426636 319.266663 1022.52002 337.399963 1015.679993 355.559998 C 1002.333313 355.626648 989.013367 355.626648 975.679993 355.600037 C 1005.399963 280.159973 1033.680054 204.146667 1063.93335 128.93335 M 1083.693359 178.919983 C 1072.093384 207.986633 1060.533325 237.06665 1049.133301 266.226624 C 1071.946655 266.41333 1094.76001 266.426697 1117.599976 266.200012 C 1106.52002 237.026672 1095.626587 207.746643 1083.693359 178.919983 Z"/>
        <path id="path5" fill="#0d0c0d" stroke="none" d="M 512.133362 208.600037 C 516.06665 202.34668 520.106628 196.159973 523.919983 189.82666 C 542.93335 207.666687 559.840027 227.546692 578.52002 245.733337 C 561.146667 265.186707 543.880005 284.733337 525.973328 303.679993 C 520.853333 297.159973 515.613342 290.733337 510.506683 284.213318 C 519.706665 275.320007 528.773315 266.306641 537.93335 257.373352 C 489.733307 256.52002 441.52002 257.253357 393.319977 256.986633 C 393.333344 249.426697 393.333344 241.880005 393.333344 234.34668 C 441.41333 234.200012 489.506683 234.533325 537.58667 234.200012 C 529.226685 225.533325 520.733337 217.013367 512.133362 208.600037 Z"/>
    </g>
</svg>
