<?xml version="1.0" encoding="UTF-8"?>
<!-- Generated by Pixelmator Pro 3.5.9 -->
<svg width="1200" height="228" viewBox="0 0 1200 228" xmlns="http://www.w3.org/2000/svg">
    <g id="fdfcfdff"/>
    <g id="0d0c0dff">
        <path id="path1" fill="#0d0c0d" stroke="none" d="M 111.653336 0.986633 C 126.266663 0.960022 140.880005 1.026672 155.506668 1.039978 C 175.76001 35.626648 196.880005 69.706665 217.573334 104.039978 C 239.933319 70.426697 260.373322 35.58667 281.52002 1.213318 C 295.160004 1.039978 308.800018 1 322.453339 1 C 294.626678 44.82666 267.213348 88.919983 239.266663 132.666687 C 234.360016 140.200012 236.093353 149.813293 235.559998 158.320007 C 236.093353 181.440002 237.466675 204.533386 237.040009 227.679993 C 224.146667 227.639954 211.23999 227.613342 198.346649 227.679993 C 198 198.773376 198.920013 169.840027 198.186676 140.946716 C 197.973328 136.506653 194.746674 133.013367 192.786652 129.253357 C 165.440002 86.693298 139.039993 43.52002 111.653336 0.986633 Z"/>
        <path id="path2" fill="#0d0c0d" stroke="none" d="M 534.34668 1.013367 C 567.666687 1.320007 601 0.293335 634.306641 1.359985 C 659.080017 1.973328 685.58667 15.840027 693.600037 40.466675 C 700.34668 61.853333 702.65332 85.720032 695.266663 107.23999 C 689.466614 123.959961 675.360046 137 658.866699 142.959961 C 630.959961 153.053284 600.65332 147.76001 571.65332 149 C 571.720032 175.226624 571.613342 201.466614 571.666687 227.693359 C 558.880005 227.639954 546.119995 227.626648 533.359985 227.666687 C 535.600037 152.146667 533.693298 76.559998 534.34668 1.013367 M 571.693298 35.706665 C 571.626648 61.893372 571.613342 88.093323 571.693298 114.293335 C 592.573303 113.960022 613.626648 115.799988 634.399963 113.013367 C 649.893311 111.373352 660.746643 96.466675 661.82666 81.626648 C 663.266663 64.746643 657.76001 43.906677 639.719971 38.23999 C 617.493347 33.053345 594.293335 36.533325 571.693298 35.706665 Z"/>
        <path id="path3" fill="#0d0c0d" stroke="none" d="M 727.679993 0.986633 C 740.546631 1.013367 753.440002 1.053345 766.320007 0.986633 C 766.386658 64.986633 766.280029 128.986633 766.34668 192.986633 C 802.733337 193.053284 839.120056 192.93335 875.52002 193.026672 C 875.693359 204.546631 875.840027 216.106689 876.626648 227.626648 C 827.06665 227.679993 777.493347 227.746643 727.946716 227.58667 C 727.386658 152.053284 727.76001 76.52002 727.679993 0.986633 Z"/>
        <path id="path4" fill="#0d0c0d" stroke="none" d="M 980.93335 0.93335 C 994.559937 1 1008.186646 1.06665 1021.813354 1.146667 C 1031.719971 28.799988 1043.013306 55.960022 1053.266724 83.493347 C 1071.400024 131.573303 1090.200073 179.41333 1108.17334 227.573303 C 1094.82666 227.613342 1081.493286 227.613342 1068.17334 227.533386 C 1062.06665 209.253357 1054.76001 191.399963 1048.453369 173.186707 C 1016.733276 172.853333 985.013306 172.906677 953.293335 173.120056 C 946.426636 191.266663 939.52002 209.399963 932.679993 227.559998 C 919.333313 227.626648 906.013367 227.626648 892.679993 227.600037 C 922.399963 152.159973 950.680054 76.146667 980.93335 0.93335 M 1000.693359 50.919983 C 989.093384 79.986633 977.533325 109.06665 966.133301 138.226624 C 988.946655 138.41333 1011.76001 138.426697 1034.599976 138.200012 C 1023.52002 109.026672 1012.626587 79.746643 1000.693359 50.919983 Z"/>
        <path id="path5" fill="#0d0c0d" stroke="none" d="M 429.133362 80.600037 C 433.06665 74.34668 437.106628 68.159973 440.919983 61.82666 C 459.93335 79.666687 476.840027 99.546692 495.52002 117.733337 C 478.146667 137.186707 460.880005 156.733337 442.973328 175.679993 C 437.853333 169.159973 432.613342 162.733337 427.506683 156.213318 C 436.706665 147.320007 445.773315 138.306641 454.93335 129.373352 C 406.733307 128.52002 358.52002 129.253357 310.319977 128.986633 C 310.333344 121.426697 310.333344 113.880005 310.333344 106.34668 C 358.41333 106.200012 406.506683 106.533325 454.58667 106.200012 C 446.226685 97.533325 437.733337 89.013367 429.133362 80.600037 Z"/>
    </g>
</svg>
