<?xml version="1.0" encoding="UTF-8" ?>
<!DOCTYPE svg PUBLIC "-//W3C//DTD SVG 1.1//EN" "http://www.w3.org/Graphics/SVG/1.1/DTD/svg11.dtd">
<svg width="1024pt" height="1024pt" viewBox="0 0 1024 1024" version="1.1" xmlns="http://www.w3.org/2000/svg">
<g id="#fdfcfdff">
</g>
<g id="#0d0c0dff">
<path fill="#0d0c0d" opacity="1.00" d=" M 145.99 420.99 C 156.95 420.97 167.91 421.02 178.88 421.03 C 194.07 446.97 209.91 472.53 225.43 498.28 C 242.20 473.07 257.53 446.94 273.39 421.16 C 283.62 421.03 293.85 421.00 304.09 421.00 C 283.22 453.87 262.66 486.94 241.70 519.75 C 238.02 525.40 239.32 532.61 238.92 538.99 C 239.32 556.33 240.35 573.65 240.03 591.01 C 230.36 590.98 220.68 590.96 211.01 591.01 C 210.75 569.33 211.44 547.63 210.89 525.96 C 210.73 522.63 208.31 520.01 206.84 517.19 C 186.33 485.27 166.53 452.89 145.99 420.99 Z" />
<path fill="#0d0c0d" opacity="1.00" d=" M 463.01 421.01 C 488.00 421.24 513.00 420.47 537.98 421.27 C 556.56 421.73 576.44 432.13 582.45 450.60 C 587.51 466.64 589.24 484.54 583.70 500.68 C 579.35 513.22 568.77 523.00 556.40 527.47 C 535.47 535.04 512.74 531.07 490.99 532.00 C 491.04 551.67 490.96 571.35 491.00 591.02 C 481.41 590.98 471.84 590.97 462.27 591.00 C 463.95 534.36 462.52 477.67 463.01 421.01 M 491.02 447.03 C 490.97 466.67 490.96 486.32 491.02 505.97 C 506.68 505.72 522.47 507.10 538.05 505.01 C 549.67 503.78 557.81 492.60 558.62 481.47 C 559.70 468.81 555.57 453.18 542.04 448.93 C 525.37 445.04 507.97 447.65 491.02 447.03 Z" />
<path fill="#0d0c0d" opacity="1.00" d=" M 608.01 420.99 C 617.66 421.01 627.33 421.04 636.99 420.99 C 637.04 468.99 636.96 516.99 637.01 564.99 C 664.30 565.04 691.59 564.95 718.89 565.02 C 719.02 573.66 719.13 582.33 719.72 590.97 C 682.55 591.01 645.37 591.06 608.21 590.94 C 607.79 534.29 608.07 477.64 608.01 420.99 Z" />
<path fill="#0d0c0d" opacity="1.00" d=" M 797.95 420.95 C 808.17 421.00 818.39 421.05 828.61 421.11 C 836.04 441.85 844.51 462.22 852.20 482.87 C 865.80 518.93 879.90 554.81 893.38 590.93 C 883.37 590.96 873.37 590.96 863.38 590.90 C 858.80 577.19 853.32 563.80 848.59 550.14 C 824.80 549.89 801.01 549.93 777.22 550.09 C 772.07 563.70 766.89 577.30 761.76 590.92 C 751.75 590.97 741.76 590.97 731.76 590.95 C 754.05 534.37 775.26 477.36 797.95 420.95 M 812.77 458.44 C 804.07 480.24 795.40 502.05 786.85 523.92 C 803.96 524.06 821.07 524.07 838.20 523.90 C 829.89 502.02 821.72 480.06 812.77 458.44 Z" />
<path fill="#0d0c0d" opacity="1.00" d=" M 384.10 480.70 C 387.05 476.01 390.08 471.37 392.94 466.62 C 407.20 480.00 419.88 494.91 433.89 508.55 C 420.86 523.14 407.91 537.80 394.48 552.01 C 390.64 547.12 386.71 542.30 382.88 537.41 C 389.78 530.74 396.58 523.98 403.45 517.28 C 367.30 516.64 331.14 517.19 294.99 516.99 C 295.00 511.32 295.00 505.66 295.00 500.01 C 331.06 499.90 367.13 500.15 403.19 499.90 C 396.92 493.40 390.55 487.01 384.10 480.70 Z" />
</g>
</svg>
